# xmcd
#
# Track frame offsets:
#	150
#	11145
#	26928
#	40676
#	53772
#	70149
#	85354
#	100685
#	119392
#	136238
#	152235
#	162792
#	175154
#	191393
#	207916
#	224360
#	239367
#	260152
#	278006
#	292730
#	302513
#
# Disc length: 4277 seconds
#
# Revision: 1
# Processed by: cddbd v1.5.2PL0 Copyright (c) Steve Scherf et al.
# Submitted via: dBpowerAMP V4.0
#
DISCID=2610b315
DTITLE=Various Artist - Hott Urban Volume 19 Can
DYEAR=2016
DGENRE=Urban
TTITLE0=Zay Hilfigerrr and Zayion Mccall - JuJu On That Beat (TZ Anthem)
TTITLE1=Drake - Fake Love
TTITLE2=D.R.A.M. - Cash Machine
TTITLE3=O.T. Genasis - Push It
TTITLE4=Phresher - Wait A Minute
TTITLE5=Big Sean - No More Interviews
TTITLE6=Partynextdoor - Not Nice
TTITLE7=Pusha t ft. Desiigner And TY Dolla $ign - Circles
TTITLE8=Big Sean - Bounce Back
TTITLE9=Twista ft. Jeremih - Next To You
TTITLE10=Fetty Wap - Make You Feel Good
TTITLE11=Jidenna - Long Live The Chief
TTITLE12=Dreezy - Wasted
TTITLE13=Ari Lennox ft. Cozz - Backseat
TTITLE14=Khalid - Location
TTITLE15=Jeezy ft. Bankroll Fresh - All There
TTITLE16=Gourdan Banks ft. Chris Brown And Bryson Tiller - Keep You In Mind [Remix]
TTITLE17=Major - Why I Love You
TTITLE18=Rayven Justice ft. Young Greatness - Between Your Thighs
TTITLE19=A Boogie With Da Hoodie - My Sh*t
TTITLE20=Mary J. Blige - Thick Of It
EXTD=
EXTT0=
EXTT1=
EXTT2=
EXTT3=
EXTT4=
EXTT5=
EXTT6=
EXTT7=
EXTT8=
EXTT9=
EXTT10=
EXTT11=
EXTT12=
EXTT13=
EXTT14=
EXTT15=
EXTT16=
EXTT17=
EXTT18=
EXTT19=
EXTT20=
PLAYORDER=
